<mxfile host="65bd71144e">
    <diagram id="RMa6ax2IpttcV2E_YFIO" name="Página-1">
        <mxGraphModel dx="2026" dy="668" grid="1" gridSize="10" guides="1" tooltips="1" connect="1" arrows="1" fold="1" page="1" pageScale="1" pageWidth="850" pageHeight="1100" math="0" shadow="0">
            <root>
                <mxCell id="0"/>
                <mxCell id="1" parent="0"/>
                <mxCell id="2" value="Persona" style="swimlane;fontStyle=0;childLayout=stackLayout;horizontal=1;startSize=26;fillColor=none;horizontalStack=0;resizeParent=1;resizeParentMax=0;resizeLast=0;collapsible=1;marginBottom=0;" vertex="1" parent="1">
                    <mxGeometry x="350" y="240" width="230" height="208" as="geometry"/>
                </mxCell>
                <mxCell id="3" value="Nombre dado: 1 Texto (T)" style="text;strokeColor=none;fillColor=none;align=left;verticalAlign=top;spacingLeft=4;spacingRight=4;overflow=hidden;rotatable=0;points=[[0,0.5],[1,0.5]];portConstraint=eastwest;" vertex="1" parent="2">
                    <mxGeometry y="26" width="230" height="26" as="geometry"/>
                </mxCell>
                <mxCell id="4" value="Nombre de familia: 1 Texto (T)" style="text;strokeColor=none;fillColor=none;align=left;verticalAlign=top;spacingLeft=4;spacingRight=4;overflow=hidden;rotatable=0;points=[[0,0.5],[1,0.5]];portConstraint=eastwest;" vertex="1" parent="2">
                    <mxGeometry y="52" width="230" height="26" as="geometry"/>
                </mxCell>
                <mxCell id="5" value="Sexo: 1 enum Sexo" style="text;strokeColor=none;fillColor=none;align=left;verticalAlign=top;spacingLeft=4;spacingRight=4;overflow=hidden;rotatable=0;points=[[0,0.5],[1,0.5]];portConstraint=eastwest;" vertex="1" parent="2">
                    <mxGeometry y="78" width="230" height="26" as="geometry"/>
                </mxCell>
                <mxCell id="10" value="Fecha de nacimiento: 1 Tiempo" style="text;strokeColor=none;fillColor=none;align=left;verticalAlign=top;spacingLeft=4;spacingRight=4;overflow=hidden;rotatable=0;points=[[0,0.5],[1,0.5]];portConstraint=eastwest;" vertex="1" parent="2">
                    <mxGeometry y="104" width="230" height="26" as="geometry"/>
                </mxCell>
                <mxCell id="11" value="Lugar de nacimiento: 1 Texto&#10;" style="text;strokeColor=none;fillColor=none;align=left;verticalAlign=top;spacingLeft=4;spacingRight=4;overflow=hidden;rotatable=0;points=[[0,0.5],[1,0.5]];portConstraint=eastwest;" vertex="1" parent="2">
                    <mxGeometry y="130" width="230" height="26" as="geometry"/>
                </mxCell>
                <mxCell id="12" value="Fecha de defunción: 0..1 Tiempo" style="text;strokeColor=none;fillColor=none;align=left;verticalAlign=top;spacingLeft=4;spacingRight=4;overflow=hidden;rotatable=0;points=[[0,0.5],[1,0.5]];portConstraint=eastwest;" vertex="1" parent="2">
                    <mxGeometry y="156" width="230" height="26" as="geometry"/>
                </mxCell>
                <mxCell id="13" value="Lugar de defunción: 0..1 Texto&#10;" style="text;strokeColor=none;fillColor=none;align=left;verticalAlign=top;spacingLeft=4;spacingRight=4;overflow=hidden;rotatable=0;points=[[0,0.5],[1,0.5]];portConstraint=eastwest;" vertex="1" parent="2">
                    <mxGeometry y="182" width="230" height="26" as="geometry"/>
                </mxCell>
                <mxCell id="14" value="" style="endArrow=none;html=1;edgeStyle=orthogonalEdgeStyle;entryX=1;entryY=0.5;entryDx=0;entryDy=0;exitX=0.47;exitY=1.092;exitDx=0;exitDy=0;exitPerimeter=0;" edge="1" parent="2" source="13" target="11">
                    <mxGeometry relative="1" as="geometry">
                        <mxPoint x="110" y="250" as="sourcePoint"/>
                        <mxPoint x="250" y="80" as="targetPoint"/>
                        <Array as="points">
                            <mxPoint x="110" y="210"/>
                            <mxPoint x="110" y="280"/>
                            <mxPoint x="250" y="280"/>
                            <mxPoint x="250" y="143"/>
                        </Array>
                    </mxGeometry>
                </mxCell>
                <mxCell id="15" value="0..*" style="edgeLabel;resizable=0;html=1;align=left;verticalAlign=bottom;" connectable="0" vertex="1" parent="14">
                    <mxGeometry x="-1" relative="1" as="geometry">
                        <mxPoint x="10" y="20" as="offset"/>
                    </mxGeometry>
                </mxCell>
                <mxCell id="16" value="0..*" style="edgeLabel;resizable=0;html=1;align=right;verticalAlign=bottom;" connectable="0" vertex="1" parent="14">
                    <mxGeometry x="1" relative="1" as="geometry">
                        <mxPoint x="31" as="offset"/>
                    </mxGeometry>
                </mxCell>
                <mxCell id="17" value="Contacta Con (T)" style="text;html=1;align=center;verticalAlign=middle;resizable=0;points=[];autosize=1;strokeColor=none;fillColor=none;" vertex="1" parent="1">
                    <mxGeometry x="480" y="490" width="120" height="30" as="geometry"/>
                </mxCell>
                <mxCell id="18" value="" style="triangle;whiteSpace=wrap;html=1;" vertex="1" parent="1">
                    <mxGeometry x="470" y="490" width="20" height="27.5" as="geometry"/>
                </mxCell>
                <mxCell id="24" value="Lugar" style="swimlane;fontStyle=0;childLayout=stackLayout;horizontal=1;startSize=26;fillColor=none;horizontalStack=0;resizeParent=1;resizeParentMax=0;resizeLast=0;collapsible=1;marginBottom=0;" vertex="1" parent="1">
                    <mxGeometry x="740" y="292" width="140" height="104" as="geometry"/>
                </mxCell>
                <mxCell id="25" value="Nombre: 0..* Texto" style="text;strokeColor=none;fillColor=none;align=left;verticalAlign=top;spacingLeft=4;spacingRight=4;overflow=hidden;rotatable=0;points=[[0,0.5],[1,0.5]];portConstraint=eastwest;" vertex="1" parent="24">
                    <mxGeometry y="26" width="140" height="26" as="geometry"/>
                </mxCell>
                <mxCell id="26" value="Dirección: 0..1 Texto" style="text;strokeColor=none;fillColor=none;align=left;verticalAlign=top;spacingLeft=4;spacingRight=4;overflow=hidden;rotatable=0;points=[[0,0.5],[1,0.5]];portConstraint=eastwest;" vertex="1" parent="24">
                    <mxGeometry y="52" width="140" height="26" as="geometry"/>
                </mxCell>
                <mxCell id="27" value="País: 1 Texto" style="text;strokeColor=none;fillColor=none;align=left;verticalAlign=top;spacingLeft=4;spacingRight=4;overflow=hidden;rotatable=0;points=[[0,0.5],[1,0.5]];portConstraint=eastwest;" vertex="1" parent="24">
                    <mxGeometry y="78" width="140" height="26" as="geometry"/>
                </mxCell>
                <mxCell id="28" value="Visita (T)" style="text;html=1;align=center;verticalAlign=middle;resizable=0;points=[];autosize=1;strokeColor=none;fillColor=none;" vertex="1" parent="1">
                    <mxGeometry x="640" y="310" width="70" height="30" as="geometry"/>
                </mxCell>
                <mxCell id="29" value="" style="triangle;whiteSpace=wrap;html=1;" vertex="1" parent="1">
                    <mxGeometry x="620" y="310" width="20" height="27.5" as="geometry"/>
                </mxCell>
                <mxCell id="30" value="" style="endArrow=none;html=1;edgeStyle=orthogonalEdgeStyle;" edge="1" parent="1">
                    <mxGeometry relative="1" as="geometry">
                        <mxPoint x="580" y="350" as="sourcePoint"/>
                        <mxPoint x="740" y="350" as="targetPoint"/>
                    </mxGeometry>
                </mxCell>
                <mxCell id="31" value="0..*" style="edgeLabel;resizable=0;html=1;align=left;verticalAlign=bottom;" connectable="0" vertex="1" parent="30">
                    <mxGeometry x="-1" relative="1" as="geometry"/>
                </mxCell>
                <mxCell id="32" value="0..1" style="edgeLabel;resizable=0;html=1;align=right;verticalAlign=bottom;" connectable="0" vertex="1" parent="30">
                    <mxGeometry x="1" relative="1" as="geometry">
                        <mxPoint x="-10" as="offset"/>
                    </mxGeometry>
                </mxCell>
                <mxCell id="34" value="Ocupación" style="swimlane;fontStyle=0;childLayout=stackLayout;horizontal=1;startSize=26;fillColor=none;horizontalStack=0;resizeParent=1;resizeParentMax=0;resizeLast=0;collapsible=1;marginBottom=0;" vertex="1" parent="1">
                    <mxGeometry x="50" y="292" width="140" height="104" as="geometry"/>
                </mxCell>
                <mxCell id="35" value="Nombre: 1 Texto" style="text;strokeColor=none;fillColor=none;align=left;verticalAlign=top;spacingLeft=4;spacingRight=4;overflow=hidden;rotatable=0;points=[[0,0.5],[1,0.5]];portConstraint=eastwest;" vertex="1" parent="34">
                    <mxGeometry y="26" width="140" height="26" as="geometry"/>
                </mxCell>
                <mxCell id="36" value="Desde: 1 Tiempo&#10;" style="text;strokeColor=none;fillColor=none;align=left;verticalAlign=top;spacingLeft=4;spacingRight=4;overflow=hidden;rotatable=0;points=[[0,0.5],[1,0.5]];portConstraint=eastwest;" vertex="1" parent="34">
                    <mxGeometry y="52" width="140" height="26" as="geometry"/>
                </mxCell>
                <mxCell id="37" value="Hasta: 0..1 Tiempo&#10;" style="text;strokeColor=none;fillColor=none;align=left;verticalAlign=top;spacingLeft=4;spacingRight=4;overflow=hidden;rotatable=0;points=[[0,0.5],[1,0.5]];portConstraint=eastwest;" vertex="1" parent="34">
                    <mxGeometry y="78" width="140" height="26" as="geometry"/>
                </mxCell>
                <mxCell id="38" value="Desempeña " style="text;html=1;align=center;verticalAlign=middle;resizable=0;points=[];autosize=1;strokeColor=none;fillColor=none;" vertex="1" parent="1">
                    <mxGeometry x="240" y="310" width="90" height="30" as="geometry"/>
                </mxCell>
                <mxCell id="40" value="" style="endArrow=none;html=1;edgeStyle=orthogonalEdgeStyle;" edge="1" parent="1">
                    <mxGeometry relative="1" as="geometry">
                        <mxPoint x="190" y="350" as="sourcePoint"/>
                        <mxPoint x="350" y="350" as="targetPoint"/>
                    </mxGeometry>
                </mxCell>
                <mxCell id="41" value="0..*" style="edgeLabel;resizable=0;html=1;align=left;verticalAlign=bottom;" connectable="0" vertex="1" parent="40">
                    <mxGeometry x="-1" relative="1" as="geometry"/>
                </mxCell>
                <mxCell id="42" value="1" style="edgeLabel;resizable=0;html=1;align=right;verticalAlign=bottom;" connectable="0" vertex="1" parent="40">
                    <mxGeometry x="1" relative="1" as="geometry">
                        <mxPoint x="-10" as="offset"/>
                    </mxGeometry>
                </mxCell>
                <mxCell id="43" value="" style="triangle;whiteSpace=wrap;html=1;direction=west;" vertex="1" parent="1">
                    <mxGeometry x="230" y="312.5" width="20" height="25" as="geometry"/>
                </mxCell>
                <mxCell id="44" value="" style="endArrow=none;html=1;edgeStyle=orthogonalEdgeStyle;exitX=0.84;exitY=-0.019;exitDx=0;exitDy=0;exitPerimeter=0;entryX=-0.004;entryY=0.831;entryDx=0;entryDy=0;entryPerimeter=0;" edge="1" parent="1" source="2" target="51">
                    <mxGeometry relative="1" as="geometry">
                        <mxPoint x="510" y="100" as="sourcePoint"/>
                        <mxPoint x="670" y="100" as="targetPoint"/>
                        <Array as="points">
                            <mxPoint x="543" y="240"/>
                            <mxPoint x="540" y="240"/>
                            <mxPoint x="540" y="100"/>
                            <mxPoint x="729" y="100"/>
                        </Array>
                    </mxGeometry>
                </mxCell>
                <mxCell id="45" value="0..*" style="edgeLabel;resizable=0;html=1;align=left;verticalAlign=bottom;" connectable="0" vertex="1" parent="44">
                    <mxGeometry x="-1" relative="1" as="geometry"/>
                </mxCell>
                <mxCell id="46" value="0..*" style="edgeLabel;resizable=0;html=1;align=right;verticalAlign=bottom;" connectable="0" vertex="1" parent="44">
                    <mxGeometry x="1" relative="1" as="geometry">
                        <mxPoint x="-10" as="offset"/>
                    </mxGeometry>
                </mxCell>
                <mxCell id="47" value="Participa En (T)" style="text;html=1;align=center;verticalAlign=middle;resizable=0;points=[];autosize=1;strokeColor=none;fillColor=none;" vertex="1" parent="1">
                    <mxGeometry x="570" y="65" width="110" height="30" as="geometry"/>
                </mxCell>
                <mxCell id="48" value="" style="triangle;whiteSpace=wrap;html=1;" vertex="1" parent="1">
                    <mxGeometry x="560" y="62.5" width="20" height="27.5" as="geometry"/>
                </mxCell>
                <mxCell id="50" value="Evento" style="swimlane;fontStyle=0;childLayout=stackLayout;horizontal=1;startSize=26;fillColor=none;horizontalStack=0;resizeParent=1;resizeParentMax=0;resizeLast=0;collapsible=1;marginBottom=0;" vertex="1" parent="1">
                    <mxGeometry x="730" y="50" width="210" height="104" as="geometry"/>
                </mxCell>
                <mxCell id="51" value="Nombre: 1 Texto" style="text;strokeColor=none;fillColor=none;align=left;verticalAlign=top;spacingLeft=4;spacingRight=4;overflow=hidden;rotatable=0;points=[[0,0.5],[1,0.5]];portConstraint=eastwest;" vertex="1" parent="50">
                    <mxGeometry y="26" width="210" height="26" as="geometry"/>
                </mxCell>
                <mxCell id="52" value="Momento de celebración: 1 Tiempo" style="text;strokeColor=none;fillColor=none;align=left;verticalAlign=top;spacingLeft=4;spacingRight=4;overflow=hidden;rotatable=0;points=[[0,0.5],[1,0.5]];portConstraint=eastwest;" vertex="1" parent="50">
                    <mxGeometry y="52" width="210" height="26" as="geometry"/>
                </mxCell>
                <mxCell id="53" value="Descripción: 0..1 Texto" style="text;strokeColor=none;fillColor=none;align=left;verticalAlign=top;spacingLeft=4;spacingRight=4;overflow=hidden;rotatable=0;points=[[0,0.5],[1,0.5]];portConstraint=eastwest;" vertex="1" parent="50">
                    <mxGeometry y="78" width="210" height="26" as="geometry"/>
                </mxCell>
                <mxCell id="54" value="" style="endArrow=none;html=1;edgeStyle=orthogonalEdgeStyle;exitX=0.25;exitY=0;exitDx=0;exitDy=0;entryX=1.013;entryY=0.892;entryDx=0;entryDy=0;entryPerimeter=0;" edge="1" parent="1" source="2" target="60">
                    <mxGeometry relative="1" as="geometry">
                        <mxPoint x="465" y="240" as="sourcePoint"/>
                        <mxPoint x="210" y="90" as="targetPoint"/>
                        <Array as="points">
                            <mxPoint x="408" y="100"/>
                            <mxPoint x="250" y="100"/>
                            <mxPoint x="250" y="99"/>
                        </Array>
                    </mxGeometry>
                </mxCell>
                <mxCell id="55" value="0..*" style="edgeLabel;resizable=0;html=1;align=left;verticalAlign=bottom;" connectable="0" vertex="1" parent="54">
                    <mxGeometry x="-1" relative="1" as="geometry"/>
                </mxCell>
                <mxCell id="56" value="0..*" style="edgeLabel;resizable=0;html=1;align=right;verticalAlign=bottom;" connectable="0" vertex="1" parent="54">
                    <mxGeometry x="1" relative="1" as="geometry">
                        <mxPoint x="20" y="1" as="offset"/>
                    </mxGeometry>
                </mxCell>
                <mxCell id="59" value="Documento" style="swimlane;fontStyle=0;childLayout=stackLayout;horizontal=1;startSize=26;fillColor=none;horizontalStack=0;resizeParent=1;resizeParentMax=0;resizeLast=0;collapsible=1;marginBottom=0;" vertex="1" parent="1">
                    <mxGeometry x="-10" y="50" width="240" height="104" as="geometry"/>
                </mxCell>
                <mxCell id="60" value="Título: 1 Texto&#10;" style="text;strokeColor=none;fillColor=none;align=left;verticalAlign=top;spacingLeft=4;spacingRight=4;overflow=hidden;rotatable=0;points=[[0,0.5],[1,0.5]];portConstraint=eastwest;" vertex="1" parent="59">
                    <mxGeometry y="26" width="240" height="26" as="geometry"/>
                </mxCell>
                <mxCell id="61" value="Tipo: 1 enum TipoDocumento&#10;" style="text;strokeColor=none;fillColor=none;align=left;verticalAlign=top;spacingLeft=4;spacingRight=4;overflow=hidden;rotatable=0;points=[[0,0.5],[1,0.5]];portConstraint=eastwest;" vertex="1" parent="59">
                    <mxGeometry y="52" width="240" height="26" as="geometry"/>
                </mxCell>
                <mxCell id="62" value="Fecha de publicación: 0..1 Tiempo&#10;" style="text;strokeColor=none;fillColor=none;align=left;verticalAlign=top;spacingLeft=4;spacingRight=4;overflow=hidden;rotatable=0;points=[[0,0.5],[1,0.5]];portConstraint=eastwest;" vertex="1" parent="59">
                    <mxGeometry y="78" width="240" height="26" as="geometry"/>
                </mxCell>
                <mxCell id="63" value="Lee (T)  " style="text;html=1;align=center;verticalAlign=middle;resizable=0;points=[];autosize=1;strokeColor=none;fillColor=none;" vertex="1" parent="1">
                    <mxGeometry x="295" y="60" width="60" height="30" as="geometry"/>
                </mxCell>
                <mxCell id="65" value="" style="triangle;whiteSpace=wrap;html=1;direction=west;" vertex="1" parent="1">
                    <mxGeometry x="270" y="62.5" width="20" height="25" as="geometry"/>
                </mxCell>
            </root>
        </mxGraphModel>
    </diagram>
</mxfile>